<svg width="1361" height="80" viewBox="0 0 1361 80" fill="none" xmlns="http://www.w3.org/2000/svg">
<rect x="0.5" width="1360" height="80" rx="12" fill="#286897"/>
<mask id="mask0_52703_67" style="mask-type:alpha" maskUnits="userSpaceOnUse" x="0" y="0" width="1361" height="80">
<rect x="0.5" width="1360" height="80" rx="12" fill="#286897"/>
</mask>
<g mask="url(#mask0_52703_67)">
<path d="M1220 59.5L1209.5 75.5" stroke="url(#paint0_linear_52703_67)" stroke-opacity="0.3" stroke-width="2" stroke-linecap="round"/>
<path d="M1247.5 49L1237 65" stroke="url(#paint1_linear_52703_67)" stroke-opacity="0.3" stroke-width="2" stroke-linecap="round"/>
<path d="M1266.5 60L1256 76" stroke="url(#paint2_linear_52703_67)" stroke-opacity="0.3" stroke-width="2" stroke-linecap="round"/>
<path d="M1294.5 49L1284 65" stroke="url(#paint3_linear_52703_67)" stroke-opacity="0.3" stroke-width="2" stroke-linecap="round"/>
<path d="M1318.5 61L1308 77" stroke="url(#paint4_linear_52703_67)" stroke-opacity="0.3" stroke-width="2" stroke-linecap="round"/>
<path d="M1346.5 48L1336 64" stroke="url(#paint5_linear_52703_67)" stroke-opacity="0.3" stroke-width="2" stroke-linecap="round"/>
<path d="M1287.23 -58C1303.31 -57.9999 1317.59 -50.2472 1326.52 -38.2744C1330.39 -39.5119 1334.5 -40.1816 1338.77 -40.1816C1360.91 -40.1816 1378.86 -22.2324 1378.86 -0.0908203C1378.86 21.7047 1361.47 39.4384 1339.81 39.9873L1338.77 40H1235.68V39.7393C1222.02 37.8768 1211.5 26.1686 1211.5 12C1211.5 -3.20401 1223.62 -15.5775 1238.72 -15.9893C1242.11 -39.7405 1262.54 -58 1287.23 -58Z" fill="#1F4F72"/>
</g>
<defs>
<linearGradient id="paint0_linear_52703_67" x1="1214.75" y1="59.5" x2="1214.75" y2="75.5" gradientUnits="userSpaceOnUse">
<stop stop-color="white" stop-opacity="0"/>
<stop offset="0.895833" stop-color="white"/>
</linearGradient>
<linearGradient id="paint1_linear_52703_67" x1="1242.25" y1="49" x2="1242.25" y2="65" gradientUnits="userSpaceOnUse">
<stop stop-color="white" stop-opacity="0"/>
<stop offset="0.895833" stop-color="white"/>
</linearGradient>
<linearGradient id="paint2_linear_52703_67" x1="1261.25" y1="60" x2="1261.25" y2="76" gradientUnits="userSpaceOnUse">
<stop stop-color="white" stop-opacity="0"/>
<stop offset="0.895833" stop-color="white"/>
</linearGradient>
<linearGradient id="paint3_linear_52703_67" x1="1289.25" y1="49" x2="1289.25" y2="65" gradientUnits="userSpaceOnUse">
<stop stop-color="white" stop-opacity="0"/>
<stop offset="0.895833" stop-color="white"/>
</linearGradient>
<linearGradient id="paint4_linear_52703_67" x1="1313.25" y1="61" x2="1313.25" y2="77" gradientUnits="userSpaceOnUse">
<stop stop-color="white" stop-opacity="0"/>
<stop offset="0.895833" stop-color="white"/>
</linearGradient>
<linearGradient id="paint5_linear_52703_67" x1="1341.25" y1="48" x2="1341.25" y2="64" gradientUnits="userSpaceOnUse">
<stop stop-color="white" stop-opacity="0"/>
<stop offset="0.895833" stop-color="white"/>
</linearGradient>
</defs>
</svg>
