<svg width="1361" height="80" viewBox="0 0 1361 80" fill="none" xmlns="http://www.w3.org/2000/svg">
<rect x="0.5" width="1360" height="80" rx="12" fill="#6CA6C7"/>
<mask id="mask0_52703_58" style="mask-type:alpha" maskUnits="userSpaceOnUse" x="0" y="0" width="1361" height="80">
<rect x="0.5" width="1360" height="80" rx="12" fill="#00A3FF"/>
</mask>
<g mask="url(#mask0_52703_58)">
<path d="M1249.75 39C1250.3 39 1250.75 39.4477 1250.75 40V43.835L1253.46 41.123C1253.85 40.7326 1254.49 40.7325 1254.88 41.123C1255.27 41.5136 1255.27 42.1476 1254.88 42.5381L1252.17 45.25H1256C1256.55 45.25 1257 45.6977 1257 46.25C1257 46.8023 1256.55 47.25 1256 47.25H1252.17L1254.88 49.9619C1255.27 50.3524 1255.27 50.9864 1254.88 51.377C1254.49 51.7675 1253.85 51.7674 1253.46 51.377L1250.75 48.665V52.5C1250.75 53.0523 1250.3 53.5 1249.75 53.5C1249.2 53.5 1248.75 53.0523 1248.75 52.5V48.665L1246.04 51.377C1245.65 51.7675 1245.01 51.7675 1244.62 51.377C1244.23 50.9864 1244.23 50.3524 1244.62 49.9619L1247.33 47.25H1243.5C1242.95 47.25 1242.5 46.8023 1242.5 46.25C1242.5 45.6977 1242.95 45.25 1243.5 45.25H1247.33L1244.62 42.5381C1244.23 42.1476 1244.23 41.5136 1244.62 41.123C1245.01 40.7325 1245.65 40.7325 1246.04 41.123L1248.75 43.835V40C1248.75 39.4477 1249.2 39 1249.75 39Z" fill="url(#paint0_linear_52703_58)"/>
<path d="M1233.75 63C1234.3 63 1234.75 63.4477 1234.75 64V67.835L1237.46 65.123C1237.85 64.7326 1238.49 64.7325 1238.88 65.123C1239.27 65.5136 1239.27 66.1476 1238.88 66.5381L1236.17 69.25H1240C1240.55 69.25 1241 69.6977 1241 70.25C1241 70.8023 1240.55 71.25 1240 71.25H1236.17L1238.88 73.9619C1239.27 74.3524 1239.27 74.9864 1238.88 75.377C1238.49 75.7675 1237.85 75.7674 1237.46 75.377L1234.75 72.665V76.5C1234.75 77.0523 1234.3 77.5 1233.75 77.5C1233.2 77.5 1232.75 77.0523 1232.75 76.5V72.665L1230.04 75.377C1229.65 75.7675 1229.01 75.7675 1228.62 75.377C1228.23 74.9864 1228.23 74.3524 1228.62 73.9619L1231.33 71.25H1227.5C1226.95 71.25 1226.5 70.8023 1226.5 70.25C1226.5 69.6977 1226.95 69.25 1227.5 69.25H1231.33L1228.62 66.5381C1228.23 66.1476 1228.23 65.5136 1228.62 65.123C1229.01 64.7325 1229.65 64.7325 1230.04 65.123L1232.75 67.835V64C1232.75 63.4477 1233.2 63 1233.75 63Z" fill="url(#paint1_linear_52703_58)"/>
<path d="M1263.75 66C1264.3 66 1264.75 66.4477 1264.75 67V70.835L1267.46 68.123C1267.85 67.7326 1268.49 67.7325 1268.88 68.123C1269.27 68.5136 1269.27 69.1476 1268.88 69.5381L1266.17 72.25H1270C1270.55 72.25 1271 72.6977 1271 73.25C1271 73.8023 1270.55 74.25 1270 74.25H1266.17L1268.88 76.9619C1269.27 77.3524 1269.27 77.9864 1268.88 78.377C1268.49 78.7675 1267.85 78.7674 1267.46 78.377L1264.75 75.665V79.5C1264.75 80.0523 1264.3 80.5 1263.75 80.5C1263.2 80.5 1262.75 80.0523 1262.75 79.5V75.665L1260.04 78.377C1259.65 78.7675 1259.01 78.7675 1258.62 78.377C1258.23 77.9864 1258.23 77.3524 1258.62 76.9619L1261.33 74.25H1257.5C1256.95 74.25 1256.5 73.8023 1256.5 73.25C1256.5 72.6977 1256.95 72.25 1257.5 72.25H1261.33L1258.62 69.5381C1258.23 69.1476 1258.23 68.5136 1258.62 68.123C1259.01 67.7325 1259.65 67.7325 1260.04 68.123L1262.75 70.835V67C1262.75 66.4477 1263.2 66 1263.75 66Z" fill="url(#paint2_linear_52703_58)"/>
<path d="M1281.75 48C1282.3 48 1282.75 48.4477 1282.75 49V52.835L1285.46 50.123C1285.85 49.7326 1286.49 49.7325 1286.88 50.123C1287.27 50.5136 1287.27 51.1476 1286.88 51.5381L1284.17 54.25H1288C1288.55 54.25 1289 54.6977 1289 55.25C1289 55.8023 1288.55 56.25 1288 56.25H1284.17L1286.88 58.9619C1287.27 59.3524 1287.27 59.9864 1286.88 60.377C1286.49 60.7675 1285.85 60.7674 1285.46 60.377L1282.75 57.665V61.5C1282.75 62.0523 1282.3 62.5 1281.75 62.5C1281.2 62.5 1280.75 62.0523 1280.75 61.5V57.665L1278.04 60.377C1277.65 60.7675 1277.01 60.7675 1276.62 60.377C1276.23 59.9864 1276.23 59.3524 1276.62 58.9619L1279.33 56.25H1275.5C1274.95 56.25 1274.5 55.8023 1274.5 55.25C1274.5 54.6977 1274.95 54.25 1275.5 54.25H1279.33L1276.62 51.5381C1276.23 51.1476 1276.23 50.5136 1276.62 50.123C1277.01 49.7325 1277.65 49.7325 1278.04 50.123L1280.75 52.835V49C1280.75 48.4477 1281.2 48 1281.75 48Z" fill="url(#paint3_linear_52703_58)"/>
<path d="M1315.75 39C1316.3 39 1316.75 39.4477 1316.75 40V43.835L1319.46 41.123C1319.85 40.7326 1320.49 40.7325 1320.88 41.123C1321.27 41.5136 1321.27 42.1476 1320.88 42.5381L1318.17 45.25H1322C1322.55 45.25 1323 45.6977 1323 46.25C1323 46.8023 1322.55 47.25 1322 47.25H1318.17L1320.88 49.9619C1321.27 50.3524 1321.27 50.9864 1320.88 51.377C1320.49 51.7675 1319.85 51.7674 1319.46 51.377L1316.75 48.665V52.5C1316.75 53.0523 1316.3 53.5 1315.75 53.5C1315.2 53.5 1314.75 53.0523 1314.75 52.5V48.665L1312.04 51.377C1311.65 51.7675 1311.01 51.7675 1310.62 51.377C1310.23 50.9864 1310.23 50.3524 1310.62 49.9619L1313.33 47.25H1309.5C1308.95 47.25 1308.5 46.8023 1308.5 46.25C1308.5 45.6977 1308.95 45.25 1309.5 45.25H1313.33L1310.62 42.5381C1310.23 42.1476 1310.23 41.5136 1310.62 41.123C1311.01 40.7325 1311.65 40.7325 1312.04 41.123L1314.75 43.835V40C1314.75 39.4477 1315.2 39 1315.75 39Z" fill="url(#paint4_linear_52703_58)"/>
<path d="M1310.75 63C1311.3 63 1311.75 63.4477 1311.75 64V67.835L1314.46 65.123C1314.85 64.7326 1315.49 64.7325 1315.88 65.123C1316.27 65.5136 1316.27 66.1476 1315.88 66.5381L1313.17 69.25H1317C1317.55 69.25 1318 69.6977 1318 70.25C1318 70.8023 1317.55 71.25 1317 71.25H1313.17L1315.88 73.9619C1316.27 74.3524 1316.27 74.9864 1315.88 75.377C1315.49 75.7675 1314.85 75.7674 1314.46 75.377L1311.75 72.665V76.5C1311.75 77.0523 1311.3 77.5 1310.75 77.5C1310.2 77.5 1309.75 77.0523 1309.75 76.5V72.665L1307.04 75.377C1306.65 75.7675 1306.01 75.7675 1305.62 75.377C1305.23 74.9864 1305.23 74.3524 1305.62 73.9619L1308.33 71.25H1304.5C1303.95 71.25 1303.5 70.8023 1303.5 70.25C1303.5 69.6977 1303.95 69.25 1304.5 69.25H1308.33L1305.62 66.5381C1305.23 66.1476 1305.23 65.5136 1305.62 65.123C1306.01 64.7325 1306.65 64.7325 1307.04 65.123L1309.75 67.835V64C1309.75 63.4477 1310.2 63 1310.75 63Z" fill="url(#paint5_linear_52703_58)"/>
<path d="M1342.75 51C1343.3 51 1343.75 51.4477 1343.75 52V55.835L1346.46 53.123C1346.85 52.7326 1347.49 52.7325 1347.88 53.123C1348.27 53.5136 1348.27 54.1476 1347.88 54.5381L1345.17 57.25H1349C1349.55 57.25 1350 57.6977 1350 58.25C1350 58.8023 1349.55 59.25 1349 59.25H1345.17L1347.88 61.9619C1348.27 62.3524 1348.27 62.9864 1347.88 63.377C1347.49 63.7675 1346.85 63.7674 1346.46 63.377L1343.75 60.665V64.5C1343.75 65.0523 1343.3 65.5 1342.75 65.5C1342.2 65.5 1341.75 65.0523 1341.75 64.5V60.665L1339.04 63.377C1338.65 63.7675 1338.01 63.7675 1337.62 63.377C1337.23 62.9864 1337.23 62.3524 1337.62 61.9619L1340.33 59.25H1336.5C1335.95 59.25 1335.5 58.8023 1335.5 58.25C1335.5 57.6977 1335.95 57.25 1336.5 57.25H1340.33L1337.62 54.5381C1337.23 54.1476 1337.23 53.5136 1337.62 53.123C1338.01 52.7325 1338.65 52.7325 1339.04 53.123L1341.75 55.835V52C1341.75 51.4477 1342.2 51 1342.75 51Z" fill="url(#paint6_linear_52703_58)"/>
<path d="M1287.23 -58C1303.31 -57.9999 1317.59 -50.2472 1326.52 -38.2744C1330.39 -39.5119 1334.5 -40.1816 1338.77 -40.1816C1360.91 -40.1816 1378.86 -22.2324 1378.86 -0.0908203C1378.86 21.7047 1361.47 39.4384 1339.81 39.9873L1338.77 40H1235.68V39.7393C1222.02 37.8768 1211.5 26.1686 1211.5 12C1211.5 -3.20401 1223.62 -15.5775 1238.72 -15.9893C1242.11 -39.7405 1262.54 -58 1287.23 -58Z" fill="#D8D8D8"/>
</g>
<defs>
<linearGradient id="paint0_linear_52703_58" x1="1249.75" y1="34" x2="1249.75" y2="53.5" gradientUnits="userSpaceOnUse">
<stop stop-color="white" stop-opacity="0"/>
<stop offset="1" stop-color="white"/>
</linearGradient>
<linearGradient id="paint1_linear_52703_58" x1="1233.75" y1="58" x2="1233.75" y2="77.5" gradientUnits="userSpaceOnUse">
<stop stop-color="white" stop-opacity="0"/>
<stop offset="1" stop-color="white"/>
</linearGradient>
<linearGradient id="paint2_linear_52703_58" x1="1263.75" y1="61" x2="1263.75" y2="80.5" gradientUnits="userSpaceOnUse">
<stop stop-color="white" stop-opacity="0"/>
<stop offset="1" stop-color="white"/>
</linearGradient>
<linearGradient id="paint3_linear_52703_58" x1="1281.75" y1="43" x2="1281.75" y2="62.5" gradientUnits="userSpaceOnUse">
<stop stop-color="white" stop-opacity="0"/>
<stop offset="1" stop-color="white"/>
</linearGradient>
<linearGradient id="paint4_linear_52703_58" x1="1315.75" y1="34" x2="1315.75" y2="53.5" gradientUnits="userSpaceOnUse">
<stop stop-color="white" stop-opacity="0"/>
<stop offset="1" stop-color="white"/>
</linearGradient>
<linearGradient id="paint5_linear_52703_58" x1="1310.75" y1="58" x2="1310.75" y2="77.5" gradientUnits="userSpaceOnUse">
<stop stop-color="white" stop-opacity="0"/>
<stop offset="1" stop-color="white"/>
</linearGradient>
<linearGradient id="paint6_linear_52703_58" x1="1342.75" y1="46" x2="1342.75" y2="65.5" gradientUnits="userSpaceOnUse">
<stop stop-color="white" stop-opacity="0"/>
<stop offset="1" stop-color="white"/>
</linearGradient>
</defs>
</svg>
