<svg width="1361" height="80" viewBox="0 0 1361 80" fill="none" xmlns="http://www.w3.org/2000/svg">
<rect x="0.5" width="1360" height="80" rx="12" fill="#286897"/>
<mask id="mask0_52703_65" style="mask-type:alpha" maskUnits="userSpaceOnUse" x="0" y="0" width="1361" height="80">
<rect x="0.5" width="1360" height="80" rx="12" fill="#286897"/>
</mask>
<g mask="url(#mask0_52703_65)">
<path d="M1220 59.5L1209.5 75.5" stroke="url(#paint0_linear_52703_65)" stroke-opacity="0.3" stroke-width="2" stroke-linecap="round"/>
<path d="M1247.5 49L1237 65" stroke="url(#paint1_linear_52703_65)" stroke-opacity="0.3" stroke-width="2" stroke-linecap="round"/>
<path d="M1266.5 60L1256 76" stroke="url(#paint2_linear_52703_65)" stroke-opacity="0.3" stroke-width="2" stroke-linecap="round"/>
<path d="M1294.5 49L1284 65" stroke="url(#paint3_linear_52703_65)" stroke-opacity="0.3" stroke-width="2" stroke-linecap="round"/>
<path d="M1318.5 61L1308 77" stroke="url(#paint4_linear_52703_65)" stroke-opacity="0.3" stroke-width="2" stroke-linecap="round"/>
<path d="M1346.5 48L1336 64" stroke="url(#paint5_linear_52703_65)" stroke-opacity="0.3" stroke-width="2" stroke-linecap="round"/>
<path d="M1269.5 47L1277 36H1287.5L1283 42H1292L1270.5 60.5L1278.5 47H1269.5Z" fill="url(#paint6_linear_52703_65)"/>
<path d="M1211 50.5L1200.5 66.5" stroke="url(#paint7_linear_52703_65)" stroke-opacity="0.3" stroke-width="2" stroke-linecap="round"/>
<path d="M1218.5 74L1208 90" stroke="white" stroke-opacity="0.3" stroke-width="2" stroke-linecap="round"/>
<path d="M1238.5 40L1228 56" stroke="url(#paint8_linear_52703_65)" stroke-opacity="0.3" stroke-width="2" stroke-linecap="round"/>
<path d="M1257.5 51L1247 67" stroke="url(#paint9_linear_52703_65)" stroke-opacity="0.3" stroke-width="2" stroke-linecap="round"/>
<path d="M1265 74.5L1254.5 90.5" stroke="white" stroke-opacity="0.3" stroke-width="2" stroke-linecap="round"/>
<path d="M1285.5 40L1275 56" stroke="url(#paint10_linear_52703_65)" stroke-opacity="0.3" stroke-width="2" stroke-linecap="round"/>
<path d="M1309.5 52L1299 68" stroke="url(#paint11_linear_52703_65)" stroke-opacity="0.3" stroke-width="2" stroke-linecap="round"/>
<path d="M1317 75.5L1306.5 91.5" stroke="white" stroke-opacity="0.3" stroke-width="2" stroke-linecap="round"/>
<path d="M1337.5 39L1327 55" stroke="url(#paint12_linear_52703_65)" stroke-opacity="0.3" stroke-width="2" stroke-linecap="round"/>
<path d="M1287.23 -58C1303.31 -57.9999 1317.59 -50.2472 1326.52 -38.2744C1330.39 -39.5119 1334.5 -40.1816 1338.77 -40.1816C1360.91 -40.1816 1378.86 -22.2324 1378.86 -0.0908203C1378.86 21.7047 1361.47 39.4384 1339.81 39.9873L1338.77 40H1235.68V39.7393C1222.02 37.8768 1211.5 26.1686 1211.5 12C1211.5 -3.20401 1223.62 -15.5775 1238.72 -15.9893C1242.11 -39.7405 1262.54 -58 1287.23 -58Z" fill="#1F4F72"/>
</g>
<defs>
<linearGradient id="paint0_linear_52703_65" x1="1214.75" y1="59.5" x2="1214.75" y2="75.5" gradientUnits="userSpaceOnUse">
<stop stop-color="white" stop-opacity="0"/>
<stop offset="0.895833" stop-color="white"/>
</linearGradient>
<linearGradient id="paint1_linear_52703_65" x1="1242.25" y1="49" x2="1242.25" y2="65" gradientUnits="userSpaceOnUse">
<stop stop-color="white" stop-opacity="0"/>
<stop offset="0.895833" stop-color="white"/>
</linearGradient>
<linearGradient id="paint2_linear_52703_65" x1="1261.25" y1="60" x2="1261.25" y2="76" gradientUnits="userSpaceOnUse">
<stop stop-color="white" stop-opacity="0"/>
<stop offset="0.895833" stop-color="white"/>
</linearGradient>
<linearGradient id="paint3_linear_52703_65" x1="1289.25" y1="49" x2="1289.25" y2="65" gradientUnits="userSpaceOnUse">
<stop stop-color="white" stop-opacity="0"/>
<stop offset="0.895833" stop-color="white"/>
</linearGradient>
<linearGradient id="paint4_linear_52703_65" x1="1313.25" y1="61" x2="1313.25" y2="77" gradientUnits="userSpaceOnUse">
<stop stop-color="white" stop-opacity="0"/>
<stop offset="0.895833" stop-color="white"/>
</linearGradient>
<linearGradient id="paint5_linear_52703_65" x1="1341.25" y1="48" x2="1341.25" y2="64" gradientUnits="userSpaceOnUse">
<stop stop-color="white" stop-opacity="0"/>
<stop offset="0.895833" stop-color="white"/>
</linearGradient>
<linearGradient id="paint6_linear_52703_65" x1="1280.5" y1="36" x2="1280.5" y2="43" gradientUnits="userSpaceOnUse">
<stop stop-color="#FFE600" stop-opacity="0"/>
<stop offset="1" stop-color="#FFE600"/>
</linearGradient>
<linearGradient id="paint7_linear_52703_65" x1="1205.75" y1="50.5" x2="1205.75" y2="66.5" gradientUnits="userSpaceOnUse">
<stop stop-color="white" stop-opacity="0"/>
<stop offset="0.895833" stop-color="white"/>
</linearGradient>
<linearGradient id="paint8_linear_52703_65" x1="1233.25" y1="40" x2="1233.25" y2="56" gradientUnits="userSpaceOnUse">
<stop stop-color="white" stop-opacity="0"/>
<stop offset="0.895833" stop-color="white"/>
</linearGradient>
<linearGradient id="paint9_linear_52703_65" x1="1252.25" y1="51" x2="1252.25" y2="67" gradientUnits="userSpaceOnUse">
<stop stop-color="white" stop-opacity="0"/>
<stop offset="0.895833" stop-color="white"/>
</linearGradient>
<linearGradient id="paint10_linear_52703_65" x1="1280.25" y1="40" x2="1280.25" y2="56" gradientUnits="userSpaceOnUse">
<stop stop-color="white" stop-opacity="0"/>
<stop offset="0.895833" stop-color="white"/>
</linearGradient>
<linearGradient id="paint11_linear_52703_65" x1="1304.25" y1="52" x2="1304.25" y2="68" gradientUnits="userSpaceOnUse">
<stop stop-color="white" stop-opacity="0"/>
<stop offset="0.895833" stop-color="white"/>
</linearGradient>
<linearGradient id="paint12_linear_52703_65" x1="1332.25" y1="39" x2="1332.25" y2="55" gradientUnits="userSpaceOnUse">
<stop stop-color="white" stop-opacity="0"/>
<stop offset="0.895833" stop-color="white"/>
</linearGradient>
</defs>
</svg>
